<svg width="747" height="125" viewBox="0 0 747 125" fill="none" xmlns="http://www.w3.org/2000/svg">
<path fill-rule="evenodd" clip-rule="evenodd" d="M52.3534 0.54334C33.7514 3.01034 15.8244 15.7183 6.98838 32.7023C1.19438 43.8403 -0.441618 51.7073 0.0963822 65.8453C0.474382 75.7803 0.963392 78.4343 3.69039 85.3453C10.9474 103.737 26.1114 117.371 44.9334 122.427C53.3094 124.676 69.1654 124.701 77.7294 122.478C86.2454 120.266 96.4024 114.806 102.977 108.905C107.994 104.402 108.249 103.955 106.802 102.212C105.949 101.185 102.392 97.0573 98.8984 93.0383L92.5454 85.7303L88.4494 89.7223C80.1694 97.7903 66.5714 102.003 55.4484 99.9473C43.1994 97.6833 34.9754 91.7803 29.8894 81.6023C24.5214 70.8593 20.1274 71.8453 73.3534 71.8453H119.853V63.8033C119.853 52.6163 117.424 41.8093 112.699 31.9733C102.036 9.77535 77.8244 -2.83566 52.3534 0.54334ZM174.596 0.783345C164.525 2.18134 154.347 6.54034 148.347 12.0253C132.274 26.7143 133.509 50.6533 150.944 62.3913C156.76 66.3073 164.755 68.8883 183.308 72.8413C205.555 77.5813 209.853 80.1443 209.853 88.6683C209.853 92.2893 209.281 93.6173 206.543 96.3553C202.185 100.713 196.328 102.326 185.353 102.193C178.711 102.112 174.846 101.509 170.601 99.8923C163.94 97.3533 155.807 91.2683 153.218 86.8853C152.23 85.2133 151.04 83.8453 150.573 83.8453C150.106 83.8453 145.739 87.0883 140.868 91.0523L132.012 98.2603L133.956 100.99C137.605 106.115 148.326 114.968 154.344 117.828C164.502 122.654 172.059 124.201 185.353 124.174C209.26 124.125 225.613 116.12 232.705 100.993C234.918 96.2723 235.353 93.9503 235.353 86.8453C235.353 79.5473 234.955 77.5343 232.535 72.6063C228.366 64.1173 220.254 58.1383 207.853 54.4143C204.828 53.5063 195.874 51.4063 187.955 49.7493C167.677 45.5043 162.853 42.6233 162.853 34.7573C162.853 26.8383 170.794 22.2853 184.353 22.4313C195.022 22.5473 202.081 25.3103 209.683 32.3483L215.445 37.6823L224.083 30.5143C228.835 26.5713 232.752 23.0853 232.788 22.7683C232.824 22.4513 230.288 19.6473 227.154 16.5373C221.053 10.4853 211.659 5.00934 203.022 2.47134C196.475 0.547341 182.336 -0.291655 174.596 0.783345ZM303.353 0.887341C264.7 6.76634 240.953 45.3903 253.269 82.3453C258.456 97.9093 269.808 110.862 284.353 117.816C295.045 122.927 301.414 124.335 313.353 124.224C325.194 124.114 333.622 122.106 343.103 117.136C352.499 112.21 355.349 109.499 389.139 73.3453C424.389 35.6293 427.866 32.1983 434.437 28.6483C444.162 23.3943 458.445 23.0493 468.322 27.8303C474.548 30.8443 481.416 38.1423 484.905 45.4553C492.1 60.5293 489.018 78.5843 477.274 90.1623C469.537 97.7893 465.288 99.3503 452.353 99.3153C443.297 99.2913 440.539 98.9113 436.75 97.1643C427.731 93.0073 420.224 84.3283 416.32 73.5453L414.212 67.7243L404.48 78.2333L394.748 88.7423L396.442 92.0443C398.693 96.4324 400.944 99.3043 407.067 105.606C414.158 112.904 421.785 117.71 431.809 121.198C439.259 123.79 441.762 124.173 451.353 124.188C470.399 124.218 483.8 118.904 496.459 106.303C520.614 82.2593 520.573 42.5343 496.369 18.3293C484.106 6.06734 470.537 0.498342 452.853 0.469342C436.634 0.442342 424.864 4.32834 412.959 13.6383C409.649 16.2273 396.3 29.8203 383.294 43.8453C332.692 98.4143 331.511 99.3453 312.853 99.3453C303.609 99.3453 301.695 99.0333 296.853 96.7373C289.727 93.3573 283.539 86.9683 279.546 78.8673C276.599 72.8884 276.353 71.6183 276.353 62.3673C276.353 53.2273 276.626 51.7733 279.45 45.8453C285.002 34.1953 294.469 26.8973 306.491 25.0003C319.157 23.0013 331.244 27.1163 339.619 36.2793L344.504 41.6253L347.511 38.9853C349.165 37.5333 353.406 33.7213 356.935 30.5153L363.353 24.6853L355.722 17.3603C347.777 9.73434 338.099 4.20934 328.853 2.02334C321.998 0.401343 310.044 -0.130659 303.353 0.887341ZM651.2 0.940343C628.969 4.65434 609.395 22.9993 603.285 45.8453C601.015 54.3343 600.991 70.1323 603.234 78.7733C608.411 98.7123 624.523 115.913 643.561 121.826C663.14 127.907 683.145 123.662 696.183 110.659C699.389 107.461 702.181 104.845 702.386 104.845C702.591 104.845 703.51 106.428 704.428 108.362C707.025 113.835 714.86 120.259 721.474 122.339C727.157 124.127 743.471 124.817 745.813 123.37C746.43 122.988 746.853 118.281 746.853 111.786V100.845H739.369C732.603 100.845 731.595 100.581 728.864 98.0953C726.645 96.0753 725.579 93.9163 724.848 89.9593C724.292 86.9483 723.853 66.5453 723.853 43.7093V2.84534H711.853H699.853V9.34534C699.853 12.9203 699.585 15.8453 699.256 15.8453C698.928 15.8453 696.725 14.1423 694.361 12.0613C682.944 2.01134 667.935 -1.85566 651.2 0.940343ZM577.773 3.18834C571.315 5.84534 565.648 9.92035 562.749 13.9913C561.631 15.5613 560.297 16.8453 559.785 16.8453C559.272 16.8453 558.853 13.6953 558.853 9.84534V2.84534H546.353H533.853V62.3453V121.845L538.103 121.921C540.44 121.962 546.178 121.995 550.853 121.993L559.353 121.991L559.853 84.6683C560.325 49.4063 560.469 47.0943 562.459 42.7943C567.604 31.6733 576.08 26.4533 589.102 26.3853L596.85 26.3453L596.852 21.2463C596.852 18.4413 597.144 12.7043 597.5 8.49634L598.146 0.845342L590.75 0.869344C585.365 0.886344 581.835 1.51734 577.773 3.18834ZM75.1524 27.2033C82.9724 31.0293 89.6134 38.9303 92.2924 47.5953L92.9884 49.8453H60.4204C23.7624 49.8453 26.0044 50.4273 30.2644 42.0223C32.6794 37.2563 39.4684 30.1973 43.9594 27.7833C52.8474 23.0053 66.0704 22.7593 75.1524 27.2033ZM672.393 25.3783C683.941 28.3483 692.215 36.2263 696.929 48.7403C699.969 56.8113 699.372 70.9543 695.651 79.0203C690.299 90.6183 680.895 97.8413 668.586 99.8083C657.218 101.624 647.987 98.8573 639.771 91.1713C623.716 76.1544 623.126 50.0553 638.489 34.4723C643.835 29.0503 646.697 27.3843 654.083 25.3953C661.023 23.5273 665.181 23.5233 672.393 25.3783Z" fill="white"/>
</svg>
